<?xml version="1.0" encoding="UTF-8"?>
<!DOCTYPE svg PUBLIC "-//W3C//DTD SVG 1.1//EN" "http://www.w3.org/Graphics/SVG/1.1/DTD/svg11.dtd">
<!-- Creator: CorelDRAW X7 -->
<svg xmlns="http://www.w3.org/2000/svg" xml:space="preserve" width="297mm" height="153mm" version="1.1" style="shape-rendering:geometricPrecision; text-rendering:geometricPrecision; image-rendering:optimizeQuality; fill-rule:evenodd; clip-rule:evenodd"
viewBox="0 0 29700 15300"
 xmlns:xlink="http://www.w3.org/1999/xlink">
 <defs>
  <style type="text/css">
   <![CDATA[
    .fil1 {fill:#FEFEFE}
    .fil2 {fill:#78BAE6}
    .fil0 {fill:#3A88C7}
   ]]>
  </style>
 </defs>
 <g id="__x0023_Layer_x0020_1">
  <metadata id="CorelCorpID_0Corel-Layer"/>
  <path class="fil0" d="M4769 3501c-1275,121 -2308,795 -2935,1837 -408,677 -600,1479 -541,2302 145,2013 1875,3718 4090,3542 1987,-157 3627,-1945 3459,-4143 -62,-805 -342,-1468 -790,-2067 -203,-272 -243,-276 -455,-498 -263,-276 -819,-592 -1174,-732 -476,-187 -1082,-295 -1654,-241z"/>
  <path class="fil1" d="M2876 6218c-48,139 -20,1691 -20,1979 0,311 -61,408 426,575 1290,441 2566,-1055 3849,-315 59,34 132,105 149,-9l0 -1996c0,-214 19,-281 -123,-381 -1147,-799 -2390,568 -3554,415 -431,-57 -609,-277 -727,-268z"/>
  <path class="fil0" d="M11735 9294c503,36 1088,-354 1295,-577 716,-775 734,-1898 12,-2710 -268,-302 -897,-636 -1299,-589l-1448 1 -1 3871 1441 4zm-627 -838l0 0 0 -2204c97,-18 569,-10 679,2 202,23 356,98 494,192 832,567 482,1920 -507,2010 -121,11 -559,18 -666,0z"/>
  <path class="fil0" d="M24424 9302l825 -1 0 -834 1636 0 4 834 824 0c1,-463 0,-923 0,-1383 0,-414 35,-933 -67,-1309 -173,-635 -778,-1200 -1574,-1203 -804,-3 -1388,560 -1575,1186 -110,371 -73,903 -73,1311 0,466 -5,934 0,1399zm825 -1674l0 0c-5,-350 -41,-717 121,-984 124,-203 355,-400 703,-398 340,1 583,206 697,402 161,275 123,622 119,980l-1640 0z"/>
  <path class="fil0" d="M14999 9301l821 0c0,-174 -22,-708 8,-834l1629 0 6 834 822 1c-4,-463 0,-924 0,-1384 0,-394 36,-959 -67,-1309 -471,-1592 -2662,-1604 -3148,-16 -110,360 -73,910 -73,1310 0,463 -10,937 2,1398zm821 -1674l0 0c-5,-343 -41,-721 122,-982 357,-570 1106,-498 1401,3 161,273 122,628 119,980l-1642 -1z"/>
  <path class="fil0" d="M19731 6929l-12 579c0,485 -24,1389 2,1782l805 1c19,-276 -29,-2244 22,-2306 1,-382 399,-738 802,-739 248,-1 429,99 560,219 103,93 260,306 257,522 37,21 7,2073 19,2303l807 1 -7 -2350c20,-184 -91,-468 -162,-613 -596,-1213 -2310,-1229 -2923,-21 -72,142 -188,434 -170,622z"/>
  <path class="fil2" d="M11735 9294l-1441 -4 1 -3871 1448 -1c-26,-37 -630,-15 -715,-15 -211,0 -544,-20 -739,3 -19,61 -27,3796 -2,3897 134,17 1063,4 1357,5l81 -9c3,0 7,-3 10,-5z"/>
  <path class="fil2" d="M22167 6987c8,317 -18,2203 12,2317l821 3c21,-91 8,-1562 8,-1785 0,-106 29,-524 -22,-581l7 2350 -807 -1c-12,-230 18,-2282 -19,-2303z"/>
  <path class="fil2" d="M20548 6985c-51,62 -3,2030 -22,2306l-805 -1c-26,-393 -2,-1297 -2,-1782l12 -579c-46,20 -26,1051 -26,1180 0,187 -22,1088 10,1195l820 3 13 -2322z"/>
 </g>
</svg>
