<?xml version="1.0" encoding="UTF-8"?>
<!DOCTYPE svg PUBLIC "-//W3C//DTD SVG 1.1//EN" "http://www.w3.org/Graphics/SVG/1.1/DTD/svg11.dtd">
<!-- Creator: CorelDRAW X7 -->
<svg xmlns="http://www.w3.org/2000/svg" xml:space="preserve" width="200mm" height="100.193mm" version="1.1" style="shape-rendering:geometricPrecision; text-rendering:geometricPrecision; image-rendering:optimizeQuality; fill-rule:evenodd; clip-rule:evenodd"
viewBox="0 0 20000 10019"
 xmlns:xlink="http://www.w3.org/1999/xlink"
 xmlns:sodipodi="http://sodipodi.sourceforge.net/DTD/sodipodi-0.dtd"
 xmlns:inkscape="http://www.inkscape.org/namespaces/inkscape"
 inkscape:version="0.91 r13725"
 sodipodi:docname="Angkasa Pura 1.svg"
 xmlns:dc="http://purl.org/dc/elements/1.1/"
 xmlns:cc="http://creativecommons.org/ns#"
 xmlns:rdf="http://www.w3.org/1999/02/22-rdf-syntax-ns#"
 xmlns:svg="http://www.w3.org/2000/svg">
 <defs>
  <style type="text/css">
   <![CDATA[
    .fil3 {fill:white}
    .fil4 {fill:black;fill-rule:nonzero}
    .fil0 {fill:#00AA11;fill-rule:nonzero}
    .fil2 {fill:#00AED6;fill-rule:nonzero}
    .fil1 {fill:black;fill-rule:nonzero}
   ]]>
  </style>
 </defs>
 <g id="Layer_x0020_1">
  <metadata id="CorelCorpID_0Corel-Layer"/>
  <sodipodi:namedview id="base" pagecolor="#ffffff" bordercolor="#666666" borderopacity="1.0" inkscape:pageopacity="0.0" inkscape:pageshadow="2" inkscape:zoom="4.7491571" inkscape:cx="62.32685" inkscape:cy="28.27781" inkscape:document-units="px" inkscape:current-layer="layer1" showgrid="false" fit-margin-top="0" fit-margin-left="0" fit-margin-right="0" fit-margin-bottom="0" units="px" inkscape:window-width="1366" inkscape:window-height="706" inkscape:window-x="-8" inkscape:window-y="-8" inkscape:window-maximized="1"/>
  <path class="fil0" d="M10824 7569c-18,329 -164,554 -445,690 -82,40 -158,9 -195,-75 -29,-65 4,-138 81,-172 199,-89 286,-271 282,-442 -4,-209 -129,-368 -325,-436 -190,-66 -387,-2 -526,170 -108,132 -117,360 -23,513 52,85 121,149 212,192 85,40 115,114 81,188 -35,75 -119,99 -203,57 -225,-114 -372,-291 -417,-541 -72,-396 175,-751 532,-850 421,-116 825,150 919,535 15,61 20,124 27,171z"/>
  <path class="fil1" d="M11899 7167c2,-32 4,-57 6,-86 73,0 143,0 218,0 1,16 4,32 4,47 0,257 2,514 0,771 -2,158 -63,289 -204,369 -178,100 -455,68 -613,-65 -15,-13 -30,-26 -47,-42 47,-46 93,-91 144,-141 79,63 168,95 272,92 160,-5 238,-92 218,-263 -134,105 -282,109 -432,59 -89,-30 -160,-90 -210,-173 -106,-177 -79,-400 68,-537 157,-146 394,-161 576,-31zm-9 341l0 0c0,-149 -81,-230 -228,-229 -138,2 -231,92 -237,219 -6,164 101,238 242,236 146,-2 223,-79 223,-226z"/>
  <path class="fil1" d="M15586 7079c-134,126 -256,242 -380,358 126,168 249,332 381,507 -90,0 -164,2 -239,-1 -17,-1 -37,-20 -49,-36 -69,-91 -135,-184 -202,-277 -11,-15 -23,-31 -43,-57 -49,55 -110,99 -131,157 -22,61 -5,136 -5,214 -40,0 -75,0 -110,0 -33,0 -66,0 -105,0 -2,-25 -4,-46 -4,-67 0,-324 2,-649 -2,-973 0,-62 19,-80 78,-74 44,5 90,1 142,1 0,197 0,387 0,593 68,-61 125,-111 180,-163 57,-52 112,-105 169,-157 12,-11 29,-24 45,-24 86,-2 172,-1 275,-1z"/>
  <path class="fil1" d="M13909 7585c13,92 101,162 202,170 85,6 165,-6 234,-61 11,-9 35,-16 45,-10 46,28 90,61 139,96 -151,151 -323,192 -521,143 -160,-40 -277,-130 -315,-295 -82,-359 195,-596 514,-542 186,32 301,140 344,322 13,54 10,112 14,177 -116,0 -224,0 -332,0 -107,0 -213,0 -324,0zm429 -165l0 0c-16,-108 -101,-159 -245,-153 -103,5 -173,64 -178,153 139,0 279,0 423,0z"/>
  <path class="fil1" d="M12716 7067c256,10 446,169 465,416 13,169 -62,305 -210,396 -170,104 -440,77 -584,-63 -216,-208 -150,-577 126,-693 65,-26 136,-38 203,-56zm233 445l0 0c-1,-141 -90,-234 -226,-232 -152,1 -232,99 -237,233 -5,128 105,231 234,230 138,-1 229,-93 229,-231z"/>
  <path class="fil1" d="M13315 7080c78,0 147,0 225,0 0,19 0,37 0,56 0,313 0,625 0,938 0,158 -92,249 -250,250 -61,0 -121,0 -189,0 0,-37 0,-68 0,-99 0,-32 0,-63 0,-105 41,0 78,1 114,-1 84,-4 100,-21 100,-103 0,-289 0,-578 0,-866 0,-22 0,-43 0,-70z"/>
  <path class="fil0" d="M9802 7572c-17,-126 143,-279 279,-270 151,10 276,128 275,278 -1,150 -131,282 -281,279 -150,-4 -282,-123 -273,-287z"/>
  <path class="fil1" d="M4586 7184l233 0c126,0 201,72 201,186 0,117 -74,185 -201,185l-162 0 0 233 -71 0 0 -604zm228 304l0 0c93,0 135,-37 135,-118 0,-80 -44,-119 -135,-119l-157 0 0 237 157 0z"/>
  <path class="fil1" d="M5270 7318c130,0 216,97 216,241 0,144 -86,242 -216,242 -128,0 -214,-98 -214,-242 0,-144 86,-241 214,-241zm0 63l0 0c-90,0 -147,69 -147,178 0,110 57,179 147,179 91,0 149,-69 149,-179 0,-109 -58,-178 -149,-178z"/>
  <polygon class="fil1" points="5529,7331 5595,7331 5678,7686 5680,7686 5802,7331 5864,7331 5986,7686 5988,7686 6070,7331 6137,7331 6027,7788 5964,7788 5834,7414 5833,7414 5702,7788 5639,7788 "/>
  <path class="fil1" d="M6392 7318c123,0 204,92 204,226l0 35 -347 0c2,88 58,160 141,160 65,0 101,-23 140,-91l56 34c-39,78 -105,119 -194,119 -127,0 -211,-98 -211,-242 0,-144 87,-241 211,-241zm136 207l0 0c-1,-43 -14,-77 -39,-105 -25,-27 -57,-41 -97,-41 -78,0 -140,69 -141,146l277 0z"/>
  <path class="fil1" d="M6692 7331l64 0 0 38 2 0c17,-29 51,-46 95,-46 13,0 29,3 45,7l-14 70c-17,-6 -32,-8 -45,-8 -55,0 -80,36 -80,121l0 275 -67 0 0 -457z"/>
  <path class="fil1" d="M7140 7318c123,0 205,92 205,226l0 35 -348 0c2,88 58,160 142,160 64,0 101,-23 139,-91l56 34c-38,78 -105,119 -194,119 -126,0 -211,-98 -211,-242 0,-144 87,-241 211,-241zm137 207l0 0c-1,-43 -15,-77 -40,-105 -25,-27 -57,-41 -97,-41 -77,0 -139,69 -141,146l278 0z"/>
  <path class="fil1" d="M7628 7318c56,0 105,23 135,61l2 0 0 -221 67 0 0 630 -65 0 0 -46 -1 0c-31,37 -81,59 -138,59 -118,0 -205,-100 -205,-242 0,-142 87,-241 205,-241zm137 196l0 0c0,-74 -61,-133 -137,-133 -81,0 -137,70 -137,178 0,108 56,179 142,179 72,0 132,-61 132,-135l0 -89z"/>
  <path class="fil1" d="M8243 7742l0 46 -64 0 0 -630 67 0 0 221 2 0c30,-38 79,-61 134,-61 119,0 205,99 205,241 0,142 -86,242 -205,242 -56,0 -107,-22 -137,-59l-2 0zm139 -361l0 0c-76,0 -136,59 -136,133l0 89c0,74 59,135 132,135 86,0 142,-71 142,-179 0,-108 -56,-178 -138,-178z"/>
  <polygon class="fil1" points="8786,7749 8610,7331 8681,7331 8820,7671 8822,7671 8961,7331 9033,7331 8759,7982 8689,7982 "/>
  <path class="fil2" d="M3443 2727c1024,0 1854,801 1854,1789 0,988 -830,1789 -1854,1789 -1024,0 -1854,-801 -1854,-1789 0,-988 830,-1789 1854,-1789z"/>
  <path class="fil3" d="M4525 4461c-15,-228 -215,-402 -452,-392l-1171 0c-43,0 -77,-34 -77,-75 0,-41 34,-74 77,-74l1187 0c-7,-155 -116,-287 -271,-329 -346,-59 -700,-59 -1046,0 -196,47 -343,205 -371,399 -54,351 -54,707 0,1058 42,205 211,364 424,399 429,52 863,52 1292,0 191,-38 335,-189 358,-376 39,-201 56,-406 50,-610zm-387 250l0 0 0 66c0,41 -34,75 -77,75 -43,0 -77,-34 -77,-75l0 -66c-25,-21 -39,-51 -39,-83 0,-62 52,-112 116,-112 64,0 116,50 116,112 0,32 -14,62 -39,83z"/>
  <path class="fil4" d="M10579 4315c2,-314 -259,-570 -584,-573 -326,-2 -591,250 -594,564 -2,314 259,570 584,572 3,0 6,0 10,0 308,16 571,-212 588,-510 1,-18 1,-35 0,-53l-4 0zm-1750 0l0 0c0,-597 489,-1052 1166,-1052 676,0 1165,458 1165,1052 0,593 -484,1053 -1165,1053 -682,0 -1166,-458 -1166,-1053z"/>
  <path class="fil4" d="M7902 4424c0,246 -259,447 -588,447 -303,29 -572,-183 -603,-475 -3,-29 -4,-59 -2,-89 0,-325 248,-548 628,-548 309,0 565,204 565,435l0 230zm24 -1162l0 0 0 236c-189,-165 -438,-250 -691,-235 -600,6 -1081,479 -1076,1058 6,578 496,1043 1096,1038 247,10 487,-79 663,-246l0 201c0,273 -244,473 -566,473 -245,17 -487,-65 -667,-227l-376 349c282,267 664,410 1059,396 658,0 1109,-426 1109,-994l0 -2049 -551 0z"/>
  <path class="fil4" d="M11500 3323l553 0 0 176 7 0c182,-159 421,-243 666,-233 603,22 1072,511 1050,1092 -22,550 -479,992 -1050,1013 -234,5 -462,-70 -645,-211l0 996 -577 0 -4 -2833zm1137 436l0 0c-309,0 -561,207 -561,432l0 252c0,240 249,438 564,438 321,16 595,-222 612,-532 16,-310 -231,-575 -552,-590 -20,-1 -40,-1 -60,0l-3 0z"/>
  <path class="fil4" d="M14882 4122c379,-49 491,-101 491,-202 0,-132 -143,-211 -366,-211 -240,-19 -458,134 -514,360l-544 -109c77,-406 510,-695 1043,-695 602,0 976,298 976,781l0 1266 -517 0 0 -220 -8 0c-176,190 -433,292 -697,274 -456,0 -773,-240 -773,-596 0,-357 260,-561 909,-648zm538 211l0 0 -8 0c-51,71 -154,113 -440,161 -339,61 -464,125 -464,241 0,117 101,173 318,173 333,0 589,-149 589,-338l5 -237z"/>
  <polygon class="fil4" points="17011,5201 16058,3323 16693,3323 17319,4623 17328,4623 17946,3323 18584,3323 17157,6156 16521,6156 "/>
 </g>
</svg>
