<?xml version="1.0" encoding="UTF-8"?>
<!DOCTYPE svg PUBLIC "-//W3C//DTD SVG 1.1//EN" "http://www.w3.org/Graphics/SVG/1.1/DTD/svg11.dtd">
<!-- Creator: CorelDRAW X7 -->
<svg xmlns="http://www.w3.org/2000/svg" xml:space="preserve" width="100mm" height="80mm" version="1.1" style="shape-rendering:geometricPrecision; text-rendering:geometricPrecision; image-rendering:optimizeQuality; fill-rule:evenodd; clip-rule:evenodd"
viewBox="0 0 10000 8000"
 xmlns:xlink="http://www.w3.org/1999/xlink"
 enable-background="new 0 0 364.949 521.214"
 xmlns:dc="http://purl.org/dc/elements/1.1/"
 xmlns:cc="http://creativecommons.org/ns#"
 xmlns:rdf="http://www.w3.org/1999/02/22-rdf-syntax-ns#"
 xmlns:svg="http://www.w3.org/2000/svg"
 xmlns:sodipodi="http://sodipodi.sourceforge.net/DTD/sodipodi-0.dtd"
 xmlns:inkscape="http://www.inkscape.org/namespaces/inkscape"
 inkscape:version="0.91 r13725"
 sodipodi:docname="Pertamina_Logo.svg">
 <defs>
  <style type="text/css">
   <![CDATA[
    .fil2 {fill:none}
    .fil0 {fill:#4C3494}
    .fil1 {fill:white}
   ]]>
  </style>
    <clipPath id="id0">
     <path d="M5000 559c1309,0 2370,1062 2370,2371 0,1309 -1061,2370 -2370,2370 -1309,0 -2370,-1061 -2370,-2370 0,-1309 1061,-2371 2370,-2371z"/>
    </clipPath>
      <clipPath id="id1">
       <path d="M5000 559c1309,0 2370,1062 2370,2371 0,1309 -1061,2370 -2370,2370 -1309,0 -2370,-1061 -2370,-2370 0,-1309 1061,-2371 2370,-2371zm0 923c327,0 629,107 872,287 276,204 474,502 546,845 19,93 29,189 29,288 0,784 -648,1420 -1447,1420 -799,0 -1447,-636 -1447,-1420 0,-99 10,-195 29,-288 72,-343 270,-641 546,-845 243,-180 545,-287 872,-287z"/>
      </clipPath>
      <clipPath id="id2">
       <path d="M5000 559c1309,0 2370,1062 2370,2371 0,1309 -1061,2370 -2370,2370 -1309,0 -2370,-1061 -2370,-2370 0,-1309 1061,-2371 2370,-2371z"/>
      </clipPath>
      <clipPath id="id3">
       <path d="M5000 1943c505,0 914,427 914,954 0,527 -409,954 -914,954 -505,0 -914,-427 -914,-954 0,-527 409,-954 914,-954z"/>
      </clipPath>
      <clipPath id="id4">
       <path d="M5000 559c1309,0 2370,1062 2370,2371 0,1309 -1061,2370 -2370,2370 -1309,0 -2370,-1061 -2370,-2370 0,-1309 1061,-2371 2370,-2371z"/>
      </clipPath>
 </defs>
 <g id="Layer_x0020_1">
  <metadata id="CorelCorpID_0Corel-Layer"/>
  <sodipodi:namedview pagecolor="#ffffff" bordercolor="#666666" borderopacity="1" objecttolerance="10" gridtolerance="10" guidetolerance="10" inkscape:pageopacity="0" inkscape:pageshadow="2" inkscape:window-width="1280" inkscape:window-height="1004" id="namedview198" showgrid="false" fit-margin-top="0" fit-margin-left="0" fit-margin-right="0" fit-margin-bottom="0" inkscape:zoom="8.7486948" inkscape:cx="247.11667" inkscape:cy="40.949792" inkscape:window-x="-8" inkscape:window-y="-8" inkscape:window-maximized="1" inkscape:current-layer="g3"/>
  <sodipodi:namedview id="base" pagecolor="#00ffff" bordercolor="#666666" borderopacity="1.0" inkscape:pageopacity="0" inkscape:pageshadow="2" inkscape:zoom="1.4" inkscape:cx="451.73565" inkscape:cy="-10.201303" inkscape:document-units="px" inkscape:current-layer="layer1" showgrid="false" fit-margin-left="0.3" fit-margin-top="0.3" fit-margin-right="0.3" fit-margin-bottom="0.3" units="px" inkscape:window-width="1920" inkscape:window-height="1001" inkscape:window-x="-9" inkscape:window-y="-9" inkscape:window-maximized="1"/>
  <sodipodi:namedview pagecolor="#ffffff" bordercolor="#666666" borderopacity="1" objecttolerance="10" gridtolerance="10" guidetolerance="10" inkscape:pageopacity="0" inkscape:pageshadow="2" inkscape:window-width="1366" inkscape:window-height="705" id="namedview16" showgrid="false" inkscape:zoom="256" inkscape:cx="1097.6396" inkscape:cy="254.7006" inkscape:window-x="-8" inkscape:window-y="-8" inkscape:window-maximized="1" inkscape:current-layer="svg6596"/>
  <g id="_2402466099856">
   <path class="fil0" d="M4271 5997l582 0 1 234 -144 -1 340 806 335 -805 -148 0 0 -233 466 0 -1 133 -560 1310c-136,0 -224,-49 -271,-152l-462 -1058 -138 0 0 -234zm-801 -41c405,0 733,331 733,739 0,407 -328,738 -733,738 -405,0 -733,-331 -733,-738 0,-408 328,-739 733,-739zm-2 242c255,0 462,225 462,502 0,277 -207,502 -462,502 -256,0 -463,-225 -463,-502 0,-277 207,-502 463,-502zm3062 -242c405,0 733,331 733,739 0,407 -328,738 -733,738 -405,0 -733,-331 -733,-738 0,-408 328,-739 733,-739zm-2 242c255,0 462,225 462,502 0,277 -207,502 -462,502 -256,0 -463,-225 -463,-502 0,-277 207,-502 463,-502z"/>
   <path class="fil1" d="M5000 559c1309,0 2370,1062 2370,2371 0,1309 -1061,2370 -2370,2370 -1309,0 -2370,-1061 -2370,-2370 0,-1309 1061,-2371 2370,-2371z"/>
   <g style="clip-path:url(#id0)">
    <g>
     <g>
     </g>
     <g style="clip-path:url(#id1)">
      <image x="2584" y="513" width="4832" height="4832" xlink:href="OVO [Bloguna]_Images\OVO [Bloguna]_ImgID1.png"/>
     </g>
     <g style="clip-path:url(#id2)">
     </g>
     <g style="clip-path:url(#id3)">
      <image x="2584" y="513" width="4832" height="4832" xlink:href="OVO [Bloguna]_Images\OVO [Bloguna]_ImgID2.png"/>
     </g>
     <g style="clip-path:url(#id4)">
     </g>
    </g>
   </g>
   <path class="fil2" d="M5000 559c1309,0 2370,1062 2370,2371 0,1309 -1061,2370 -2370,2370 -1309,0 -2370,-1061 -2370,-2370 0,-1309 1061,-2371 2370,-2371z"/>
  </g>
 </g>
</svg>
