<?xml version="1.0" encoding="UTF-8"?>
<!DOCTYPE svg PUBLIC "-//W3C//DTD SVG 1.1//EN" "http://www.w3.org/Graphics/SVG/1.1/DTD/svg11.dtd">
<!-- Creator: CorelDRAW X7 -->
<svg xmlns="http://www.w3.org/2000/svg" xml:space="preserve" width="211.667mm" height="118.533mm" version="1.1" style="shape-rendering:geometricPrecision; text-rendering:geometricPrecision; image-rendering:optimizeQuality; fill-rule:evenodd; clip-rule:evenodd"
viewBox="0 0 21167 11853"
 xmlns:xlink="http://www.w3.org/1999/xlink">
 <defs>
  <style type="text/css">
   <![CDATA[
    .fil1 {fill:#FEFEFE}
    .fil0 {fill:#EE4E2C}
    .fil2 {fill:#EE4E2C;fill-rule:nonzero}
   ]]>
  </style>
 </defs>
 <g id="Layer_x0020_1">
  <metadata id="CorelCorpID_0Corel-Layer"/>
  <path class="fil0" d="M2701 3488l5565 0c370,0 673,303 673,673l0 3895c0,370 -303,672 -673,672l-5727 0c-370,0 -673,-302 -673,-672l0 -4811c0,-175 144,-296 318,-318l5132 -655c175,0 318,143 318,318l0 544 -5254 0c0,229 68,354 321,354zm3121 4268l0 0c-468,90 -1070,-66 -1397,-418 -148,-159 90,-399 239,-239 220,237 612,348 932,341 408,-9 772,-381 540,-795 -321,-574 -1112,-414 -1518,-865 -329,-364 -173,-937 213,-1191 403,-264 1098,-254 1429,125 142,163 -96,403 -239,239 -268,-307 -899,-265 -1140,50 -344,451 170,693 528,802 493,149 1041,422 1130,988 72,455 -281,878 -717,963z"/>
  <path class="fil1" d="M5822 7756l0 0c-468,90 -1070,-66 -1397,-418 -148,-159 90,-399 239,-239 220,237 612,348 933,341 407,-9 771,-381 539,-795 -321,-574 -1112,-414 -1518,-865 -329,-364 -173,-937 213,-1191 403,-264 1098,-254 1429,125 142,163 -96,403 -239,239 -268,-307 -899,-265 -1140,50 -344,451 170,693 528,802 493,149 1041,422 1130,988 72,455 -281,878 -717,963z"/>
  <path class="fil2" d="M15408 3249c-199,0 -378,84 -501,218l0 -155c0,-140 -225,-141 -225,0l0 1838c0,140 225,141 225,0l0 -819c123,134 302,218 501,218 369,0 670,-291 670,-650 0,-358 -301,-650 -670,-650zm0 1065l0 0c-237,0 -428,-186 -428,-415 0,-206 155,-378 359,-410 1,0 2,0 4,0 21,-3 43,-5 65,-5 174,0 325,102 391,248 0,0 1,1 1,2 23,50 35,106 35,165 0,229 -191,415 -427,415zm-1664 235c-369,0 -670,-291 -670,-650 0,-358 301,-650 670,-650 370,0 671,292 671,650 0,359 -301,650 -671,650zm0 -1065l0 0c-236,0 -428,186 -428,415 0,229 192,415 428,415 236,0 428,-186 428,-415 0,-229 -192,-415 -428,-415zm5386 402c-5,-298 -163,-568 -490,-628 -281,-52 -610,92 -730,347 -124,266 -72,630 173,816 266,199 680,138 953,-10 126,-69 13,-258 -114,-189 -173,94 -399,140 -592,77 -145,-46 -226,-168 -250,-303l937 0c60,0 114,-51 113,-110zm-1042 -109l0 0c2,-8 4,-16 6,-24 54,-178 239,-281 425,-286 215,-6 335,138 373,310l-804 0zm-459 111c-5,-299 -163,-569 -490,-629 -281,-51 -610,93 -730,348 -124,266 -72,630 173,815 266,200 680,139 953,-9 127,-69 13,-258 -114,-189 -173,94 -399,140 -592,77 -145,-47 -226,-168 -250,-303l937 0c60,0 114,-51 113,-110zm-1042 -109l0 0c2,-9 4,-16 6,-24 54,-178 239,-282 425,-286 215,-6 335,137 373,310l-804 0zm-3777 -102l0 760c0,143 -226,143 -226,0l0 -745c-7,-147 -133,-215 -137,-216 -161,-70 -452,-38 -626,182l0 779c0,143 -225,143 -225,0l0 -1951c0,-143 225,-143 225,0l0 876c277,-184 628,-164 794,-51 0,0 198,109 195,366zm-1584 -1101c-221,-244 -685,-251 -954,-80 -258,162 -362,530 -143,764 272,290 800,187 1014,555 155,266 -87,505 -360,511 -214,4 -476,-67 -623,-219 -99,-103 -258,51 -159,153 218,226 620,326 932,268 292,-54 527,-326 479,-618 -59,-363 -425,-538 -754,-634 -240,-69 -582,-225 -353,-514 161,-203 583,-230 761,-33 96,105 255,-49 160,-153z"/>
  <path class="fil0" d="M17105 9862l-716 0 767 -1449 -1258 -2377 777 0 869 1644 870 -1644 716 0 -2025 3826zm-7136 -1134l601 0 0 -1097 809 1c840,0 1520,-589 1520,-1316 0,-726 -680,-1315 -1520,-1315l-1410 0c0,1243 0,2485 0,3727zm601 -1697l0 -1429 809 0c456,0 826,320 826,714 0,395 -370,715 -826,715l-809 0zm4577 -971l527 0 0 2645 -527 0 0 -297c-235,200 -539,320 -872,320 -743,0 -1346,-602 -1346,-1346 0,-743 603,-1346 1346,-1346 333,0 637,121 872,321l0 -297zm-872 544c430,0 779,348 779,778 0,431 -349,779 -779,779 -430,0 -779,-348 -779,-779 0,-430 349,-778 779,-778z"/>
 </g>
</svg>
